<svg id="offer" xmlns="http://www.w3.org/2000/svg" xmlns:xlink="http://www.w3.org/1999/xlink" viewBox="0 0 512 512">
	<path d="M95.7,178.3c26.4,0,47.9-21.5,47.9-47.9s-21.5-47.9-47.9-47.9S47.8,104,47.8,130.4S69.3,178.3,95.7,178.3z M95.7,97.5
	c18.1,0,32.9,14.8,32.9,32.9s-14.8,32.9-32.9,32.9s-32.9-14.8-32.9-32.9C62.8,112.3,77.6,97.5,95.7,97.5z" />
	<path d="M154.6,130.4c0,26.4,21.5,47.9,47.9,47.9s47.9-21.5,47.9-47.9s-21.5-47.9-47.9-47.9S154.6,104,154.6,130.4z M235.4,130.4
	c0,18.1-14.8,32.9-32.9,32.9c-18.1,0-32.9-14.8-32.9-32.9s14.8-32.9,32.9-32.9S235.4,112.3,235.4,130.4z" />
	<path d="M309.3,178.3c26.4,0,47.9-21.5,47.9-47.9s-21.5-47.9-47.9-47.9s-47.9,21.5-47.9,47.9S282.9,178.3,309.3,178.3z M309.3,97.5
	c18.1,0,32.9,14.8,32.9,32.9s-14.8,32.9-32.9,32.9s-32.9-14.8-32.9-32.9S291.2,97.5,309.3,97.5z" />
	<path
		d="M265.7,51.1H55.3c-4.1,0-7.5,3.4-7.5,7.5s3.4,7.5,7.5,7.5h210.4c4.1,0,7.5-3.4,7.5-7.5S269.9,51.1,265.7,51.1z" />
	<path d="M95.7,327.9c26.4,0,47.9-21.5,47.9-47.9s-21.5-47.9-47.9-47.9S47.8,253.5,47.8,280S69.3,327.9,95.7,327.9z M95.7,247.1
	c18.1,0,32.9,14.8,32.9,32.9s-14.8,32.9-32.9,32.9S62.8,298.1,62.8,280S77.6,247.1,95.7,247.1L95.7,247.1z" />
	<path d="M154.6,280c0,26.4,21.5,47.9,47.9,47.9s47.9-21.5,47.9-47.9s-21.5-47.9-47.9-47.9S154.6,253.5,154.6,280z M235.4,280
	c0,18.1-14.8,32.9-32.9,32.9c-18.1,0-32.9-14.8-32.9-32.9s14.8-32.9,32.9-32.9S235.4,261.8,235.4,280z" />
	<path
		d="M55.3,215.7h210.4c4.1,0,7.5-3.4,7.5-7.5s-3.4-7.5-7.5-7.5H55.3c-4.1,0-7.5,3.4-7.5,7.5S51.2,215.7,55.3,215.7z" />
	<path d="M95.7,482.8c26.4,0,47.9-21.5,47.9-47.9S122.1,387,95.7,387s-47.9,21.5-47.9,47.9S69.3,482.8,95.7,482.8z M95.7,402
	c18.1,0,32.9,14.8,32.9,32.9s-14.8,32.9-32.9,32.9S62.8,453,62.8,434.9S77.6,402,95.7,402z" />
	<path d="M154.6,434.9c0,26.4,21.5,47.9,47.9,47.9s47.9-21.5,47.9-47.9S228.9,387,202.5,387S154.6,408.5,154.6,434.9z M235.4,434.9
	c0,18.1-14.8,32.9-32.9,32.9c-18.1,0-32.9-14.8-32.9-32.9s14.8-32.9,32.9-32.9S235.4,416.7,235.4,434.9z" />
	<path d="M309.3,482.8c26.4,0,47.9-21.5,47.9-47.9S335.8,387,309.3,387s-47.9,21.5-47.9,47.9S282.9,482.8,309.3,482.8z M309.3,402
	c18.1,0,32.9,14.8,32.9,32.9s-14.8,32.9-32.9,32.9s-32.9-14.8-32.9-32.9S291.2,402,309.3,402z" />
	<path
		d="M55.3,370.6h210.4c4.1,0,7.5-3.4,7.5-7.5s-3.4-7.5-7.5-7.5H55.3c-4.1,0-7.5,3.4-7.5,7.5S51.2,370.6,55.3,370.6z" />
	<path d="M483.8,92.2l4.7-11.7c4.2-10.5-0.9-22.4-11.4-26.5l-20.3-8.1c-5.1-2-10.6-1.9-15.6,0.2c-5,2.2-8.9,6.1-10.9,11.2l-9.3,23.3
	c-3.8,1.9-7.1,4.7-9.7,8.3c-2.1,2.9-4.2,6-6.3,9.1V30.8c0-17-13.8-30.8-30.8-30.8H31C14,0,0.2,13.8,0.2,30.8v374.5
	c0,4.1,3.4,7.5,7.5,7.5s7.5-3.4,7.5-7.5V30.8C15.2,22.1,22.3,15,31,15h343.1c8.7,0,15.8,7.1,15.8,15.8v91.5
	c-13.3,23.2-26.2,50.3-37.8,79.3c-5.3,13.4-10.2,26.7-14.5,39.7c-8.1-5.9-17.9-9.2-28.3-9.2c-26.4,0-47.9,21.5-47.9,47.9
	s21.5,47.9,47.9,47.9c2.6,0,5.1-0.2,7.6-0.6c-4.4,35.7,0.5,56.6,14.5,62.2c2.3,0.9,4.6,1.3,7.1,1.3c13.5,0,29.9-13.5,49-40.2
	c0.8-1.1,1.5-2.1,2.3-3.2v133.8c0,8.7-7.1,15.8-15.8,15.8H31c-8.7,0-15.8-7.1-15.8-15.8v-46c0-4.1-3.4-7.5-7.5-7.5s-7.5,3.4-7.5,7.5
	v46C0.2,498.2,14,512,31,512h343.1c17,0,30.8-13.8,30.8-30.8V323.9c14.4-24.4,28.5-53.6,41-84.9c9-22.5,16.5-44.7,22.5-66
	c1.1-4-1.2-8.1-5.2-9.2s-8.1,1.2-9.3,5.2c-5.9,20.8-13.3,42.5-22,64.5c-7,17.5-14.5,34.4-22.3,50l-61.9-24.7
	c5.1-16.7,11.2-34,18.2-51.6c17.3-43.5,37.7-82.3,57.3-109.5c3.2-4.4,9-6.1,14-4.1l20.9,8.3c5.1,2,8.1,7.2,7.4,12.6
	c-1.1,8-2.6,16.6-4.6,25.7c-0.9,4,1.7,8,5.7,8.9c4,0.9,8-1.7,8.9-5.7c2.1-9.5,3.7-18.5,4.8-26.9c0.4-3.3,0.2-6.5-0.5-9.6
	c11.6,5.4,17.2,15,16.6,28.8c-0.9,19.4-19,54.8-35,86.1c-19.6,38.3-31.5,62.4-28.5,75.7c0.8,3.5,3.9,5.8,7.3,5.8
	c0.6,0,1.1-0.1,1.7-0.2c4-0.9,6.6-4.9,5.6-9c-0.4-1.5-0.4-6.9,6.6-23.3c5.2-12.1,12.7-26.7,20.6-42.2c17.5-34.2,35.7-69.6,36.7-92.3
	C512.6,115.5,502.6,99.8,483.8,92.2L483.8,92.2z M276.5,280c0-18.1,14.8-32.9,32.9-32.9c8.9,0,17.2,3.5,23.3,9.7
	c-5.9,19.4-10.4,37.8-13.3,54.5c-3.2,1-6.6,1.6-10,1.6C291.2,312.9,276.5,298.1,276.5,280L276.5,280z M402.8,296.8
	c-9,17-18.3,32.3-27.4,45.1c-21.5,30.1-34.5,35.2-38.3,33.6c-3.8-1.5-9.7-14.1-4.6-50.8c2.2-15.5,5.9-33,11.1-51.6L402.8,296.8z
	 M442.9,79.6c-1.6-0.6-3.3-1.1-4.9-1.4l6.1-15.4c0.5-1.3,1.6-2.4,2.9-3c1.3-0.6,2.8-0.6,4.1-0.1l20.3,8.1c2.8,1.1,4.1,4.3,3,7
	l-6.1,15.4c-1.4-0.9-2.9-1.7-4.6-2.4L442.9,79.6z" />
</svg>