<svg id="offer" xmlns="http://www.w3.org/2000/svg" viewBox="0 0 512 512">
	<g>
		<path d="M504.5,313.5c-4.2,0-7.5,3.4-7.5,7.5v34.5h-77.5c-15.5,0-28.1,12.6-28.1,28.1v78.1H38.3c-12.8,0-23.3-10.4-23.3-23.3v-227
		c0-4.2-3.4-7.5-7.5-7.5S0,207.3,0,211.4v227c0,21.1,17.2,38.3,38.3,38.3h435.4c21.1,0,38.3-17.2,38.3-38.3V321
		C512,316.8,508.6,313.5,504.5,313.5L504.5,313.5z M406.4,383.6c0-7.2,5.8-13,13-13h66.9l-79.9,79.9L406.4,383.6L406.4,383.6z
		 M473.7,461.7h-57.2l80.5-80.5v57.2C496.9,451.3,486.5,461.7,473.7,461.7z" />
		<path d="M477.9,63.8v-5.5c0-12.4-9.5-22.5-21.5-23c-6.2-0.3-12.1,1.9-16.6,6.2c-4.4,4.2-7,10.2-7,16.3v5.7h-21.3v-5.3
		c0-11.8-8.6-21.6-20.1-22.9c-6.4-0.7-12.8,1.4-17.6,5.6c-4.8,4.3-7.5,10.4-7.5,16.8v5.7H345v-5.3c0-11.8-8.6-21.6-20.1-22.9
		c-6.4-0.7-12.8,1.4-17.6,5.6c-4.8,4.3-7.5,10.4-7.5,16.8v5.7h-21.3v-5.7c0-6.4-2.7-12.5-7.5-16.8c-4.8-4.3-11.2-6.3-17.6-5.6
		c-11.4,1.2-20.1,11.1-20.1,22.9v5.3h-21.3v-5.7c0-6.4-2.7-12.5-7.5-16.8c-4.8-4.3-11.2-6.3-17.6-5.6C175.6,36.6,167,46.5,167,58.3
		v5.3h-21.3v-5.7c0-6.4-2.7-12.5-7.5-16.8c-4.8-4.3-11.2-6.3-17.6-5.6c-11.4,1.2-20.1,11.1-20.1,22.9v5.3H79.3v-5.7
		c0-6.4-2.7-12.5-7.5-16.8c-4.8-4.3-11.2-6.3-17.6-5.6c-11.4,1.2-20.1,11.1-20.1,22.9v5.5C15,65.9,0,82.1,0,101.8v77.5
		c0,4.2,3.4,7.5,7.5,7.5s7.5-3.4,7.5-7.5v-28.7h412.1c4.2,0,7.5-3.4,7.5-7.5s-3.4-7.5-7.5-7.5H15.1v-33.8c0-11.4,8.2-20.9,19.1-22.9
		v9.5c0,11.8,8.6,21.6,20.1,22.9c0.8,0.1,1.6,0.1,2.5,0.1c5.6,0,11-2,15.1-5.8c4.8-4.3,7.5-10.4,7.5-16.8V78.6h21.3v9.9
		c0,11.8,8.6,21.6,20.1,22.9c0.8,0.1,1.6,0.1,2.5,0.1c5.6,0,11-2,15.1-5.8c4.8-4.3,7.5-10.4,7.5-16.8V78.6H167v9.9
		c0,11.8,8.6,21.6,20.1,22.9c0.8,0.1,1.6,0.1,2.5,0.1c5.6,0,11-2,15.1-5.8c4.8-4.3,7.5-10.4,7.5-16.8V78.6h21.3v9.9
		c0,11.8,8.6,21.6,20.1,22.9c0.8,0.1,1.6,0.1,2.5,0.1c5.6,0,11-2,15.1-5.8c4.8-4.3,7.5-10.4,7.5-16.8V78.6h21.3v10.3
		c0,6.4,2.7,12.5,7.5,16.8c4.2,3.7,9.6,5.8,15.1,5.8c0.8,0,1.6,0,2.5-0.1c11.4-1.2,20.1-11.1,20.1-22.9v-9.9h21.3v10.3
		c0,6.4,2.7,12.5,7.5,16.8c4.2,3.7,9.6,5.8,15.1,5.8c0.8,0,1.6,0,2.5-0.1c11.4-1.2,20.1-11.1,20.1-22.9v-9.9h21.3v10.3
		c0,6.4,2.7,12.5,7.5,16.8c4.2,3.7,9.6,5.8,15.1,5.8c0.8,0,1.6,0,2.5-0.1c11.4-1.2,20.1-11.1,20.1-22.9V79
		c10.8,2,19.1,11.5,19.1,22.9v33.8h-37.7c-4.2,0-7.5,3.4-7.5,7.5s3.4,7.5,7.5,7.5H497v138.3c0,4.2,3.4,7.5,7.5,7.5
		c4.2,0,7.5-3.4,7.5-7.5V101.8C512,82.1,497,65.9,477.9,63.8L477.9,63.8z M64.2,88.9c0,2.2-0.9,4.2-2.5,5.6
		c-1.6,1.4-3.7,2.1-5.9,1.9c-3.7-0.4-6.7-3.9-6.7-7.9V58.3c0-4,2.9-7.5,6.7-7.9c2.2-0.2,4.3,0.4,5.9,1.9c1.6,1.4,2.5,3.4,2.5,5.6
		V88.9z M130.7,88.9c0,2.2-0.9,4.2-2.5,5.6c-1.6,1.4-3.7,2.1-5.9,1.9c-3.7-0.4-6.7-3.9-6.7-7.9V58.3c0-4,2.9-7.5,6.7-7.9
		c2.2-0.2,4.3,0.4,5.9,1.9c1.6,1.4,2.5,3.4,2.5,5.6V88.9z M197.1,88.9c0,2.2-0.9,4.2-2.5,5.6c-1.6,1.4-3.7,2.1-5.9,1.9
		c-3.7-0.4-6.7-3.9-6.7-7.9V58.3c0-4,2.9-7.5,6.7-7.9c0.3,0,0.6,0,0.9,0c1.9,0,3.6,0.7,5,1.9c1.6,1.4,2.5,3.4,2.5,5.6L197.1,88.9z
		 M263.5,88.9c0,2.2-0.9,4.2-2.5,5.6c-1.6,1.4-3.7,2.1-5.9,1.9c-3.7-0.4-6.7-3.9-6.7-7.9V58.3c0-4,2.9-7.5,6.7-7.9
		c0.3,0,0.6,0,0.9,0c1.9,0,3.6,0.7,5,1.9c1.6,1.4,2.5,3.4,2.5,5.6V88.9z M330,88.5c0,4-2.9,7.5-6.7,7.9c-2.2,0.2-4.3-0.4-5.9-1.9
		c-1.6-1.4-2.5-3.4-2.5-5.6V57.8c0-2.2,0.9-4.2,2.5-5.6c1.4-1.3,3.2-1.9,5-1.9c0.3,0,0.6,0,0.9,0c3.7,0.4,6.7,3.9,6.7,7.9V88.5z
		 M396.4,88.5c0,4-2.9,7.5-6.7,7.9c-2.2,0.2-4.3-0.4-5.9-1.9c-1.6-1.4-2.5-3.4-2.5-5.6V57.8c0-2.2,0.9-4.2,2.5-5.6
		c1.6-1.4,3.7-2.1,5.9-1.9c3.7,0.4,6.7,3.9,6.7,7.9V88.5z M462.8,88.5c0,4-2.9,7.5-6.7,7.9c-2.2,0.2-4.3-0.4-5.9-1.9
		c-1.6-1.4-2.5-3.4-2.5-5.6V57.8c0-2.1,0.8-4,2.3-5.4c1.4-1.4,3.2-2.1,5.2-2.1c0.1,0,0.2,0,0.4,0c4,0.2,7.2,3.8,7.2,8L462.8,88.5
		L462.8,88.5z" />
		<path d="M59.3,242.3h36.5c7.7,0,13.9-6.2,13.9-13.9v-36.5c0-7.7-6.2-13.9-13.9-13.9H59.3c-7.7,0-13.9,6.2-13.9,13.9v36.5
		C45.4,236,51.7,242.3,59.3,242.3z M60.5,193.1h34.2v34.2H60.5V193.1z" />
		<path d="M178.3,242.3h36.5c7.7,0,13.9-6.2,13.9-13.9v-36.5c0-7.7-6.2-13.9-13.9-13.9h-36.5c-7.7,0-13.9,6.2-13.9,13.9v36.5
		C164.5,236,170.7,242.3,178.3,242.3z M179.5,193.1h34.2v34.2h-34.2V193.1z" />
		<path d="M297.4,242.3h36.5c7.7,0,13.9-6.2,13.9-13.9v-36.5c0-7.7-6.2-13.9-13.9-13.9h-36.5c-7.7,0-13.9,6.2-13.9,13.9v36.5
		C283.5,236,289.7,242.3,297.4,242.3z M298.5,193.1h34.2v34.2h-34.2V193.1z" />
		<path d="M416.4,242.3h36.5c7.7,0,13.9-6.2,13.9-13.9v-36.5c0-7.7-6.2-13.9-13.9-13.9h-36.5c-7.7,0-13.9,6.2-13.9,13.9v36.5
		C402.5,236,408.7,242.3,416.4,242.3z M417.6,193.1h34.2v34.2h-34.2V193.1z" />
		<path d="M45.4,321.9c0,7.7,6.2,13.9,13.9,13.9h36.5c7.7,0,13.9-6.2,13.9-13.9v-36.5c0-7.7-6.2-13.9-13.9-13.9H59.3
		c-7.7,0-13.9,6.2-13.9,13.9V321.9z M60.5,286.6h34.2v34.2H60.5L60.5,286.6z" />
		<path d="M164.5,321.9c0,7.7,6.2,13.9,13.9,13.9h36.5c7.7,0,13.9-6.2,13.9-13.9v-36.5c0-7.7-6.2-13.9-13.9-13.9h-36.5
		c-7.7,0-13.9,6.2-13.9,13.9V321.9z M179.5,286.6h34.2v34.2h-34.2V286.6z" />
		<path d="M402.5,321.9c0,7.7,6.2,13.9,13.9,13.9h36.5c7.7,0,13.9-6.2,13.9-13.9v-36.5c0-7.7-6.2-13.9-13.9-13.9h-36.5
		c-7.7,0-13.9,6.2-13.9,13.9V321.9z M417.6,286.6h34.2v34.2h-34.2V286.6z" />
		<path d="M45.4,415.4c0,7.7,6.2,13.9,13.9,13.9h36.5c7.7,0,13.9-6.2,13.9-13.9v-36.5c0-7.7-6.2-13.9-13.9-13.9H59.3
		c-7.7,0-13.9,6.2-13.9,13.9V415.4z M60.5,380.1h34.2v34.2H60.5L60.5,380.1z" />
		<path d="M164.5,415.4c0,7.7,6.2,13.9,13.9,13.9h36.5c7.7,0,13.9-6.2,13.9-13.9v-36.5c0-7.7-6.2-13.9-13.9-13.9h-36.5
		c-7.7,0-13.9,6.2-13.9,13.9V415.4z M179.5,380.1h34.2v34.2h-34.2V380.1z" />
		<path d="M333.9,365h-36.5c-7.7,0-13.9,6.2-13.9,13.9v36.5c0,7.7,6.2,13.9,13.9,13.9h36.5c7.7,0,13.9-6.2,13.9-13.9v-36.5
		C347.7,371.2,341.5,365,333.9,365z M332.7,414.2h-34.2v-34.2h34.2V414.2z" />
		<path d="M274.1,294.7c-1.8,5.5,0.2,11.5,4.9,14.9l9.1,6.6l-3.5,10.7c-1.8,5.5,0.2,11.5,4.9,14.9c2.4,1.7,5.1,2.6,7.9,2.6
		c2.8,0,5.5-0.9,7.9-2.6l9.1-6.6l9.1,6.6c4.7,3.4,11,3.4,15.7,0c4.7-3.4,6.7-9.4,4.9-14.9l-3.5-10.7l9.1-6.6
		c4.7-3.4,6.7-9.4,4.9-14.9c-1.8-5.5-6.9-9.2-12.7-9.2h-11.2l-3.5-10.7c-1.8-5.5-6.9-9.2-12.7-9.2c0,0,0,0,0,0
		c-5.8,0-10.9,3.7-12.7,9.2l-3.5,10.7h-11.2C281,285.4,275.9,289.1,274.1,294.7z M299.3,300.5c5.8,0,10.9-3.7,12.7-9.2l2.2-6.9
		l2.2,6.9c1.8,5.5,6.9,9.2,12.7,9.2h7.3l-5.9,4.3c-4.7,3.4-6.7,9.4-4.9,14.9l2.2,6.9l-5.9-4.3c-4.7-3.4-11-3.4-15.7,0l-5.9,4.3
		l2.2-6.9c1.8-5.5-0.2-11.5-4.9-14.9l-5.9-4.3H299.3z" />
	</g>
</svg>