<svg id="offer" xmlns="http://www.w3.org/2000/svg" xmlns:xlink="http://www.w3.org/1999/xlink" viewBox="0 0 512 512">
	<path d="M488,136h-8v-32c0-4.4-3.6-8-8-8c-0.3,0-0.7,0-1,0.1l-7,0.9V64c0-2.5-1.1-4.8-3.1-6.3c-2-1.5-4.5-2-6.9-1.4l-293.4,75.3
	l29.8-51.7c3.4-6.1,5.3-12.9,5.3-19.9c0-22.1-17.8-40-39.9-40.1c-14.3,0-27.6,7.6-34.7,20L21.4,212.5c-3.6,6.1-5.4,13-5.4,20.1v99
	c0,3.7,0.5,7.4,1.5,11L43,432h-3c-4.4,0-8,3.6-8,8v48c0,4.4,3.6,8,8,8h176c4.4,0,8-3.6,8-8v-48c0-4.4-3.6-8-8-8v-20.1
	c0-14.9-5.9-29.2-16.4-39.7L187.3,360H488c4.4,0,8-3.6,8-8V144C496,139.6,492.4,136,488,136z M464,113.1V136H290.2L464,113.1z
	 M448,74.3v24.8l-198.5,26.1L448,74.3z M208,480H48v-32h160V480z M160.6,355c0.4,1,1,1.8,1.8,2.6l-0.1,0.1l25.9,25.9
	c7.6,7.5,11.8,17.7,11.8,28.3V432H59.7l-26.8-93.8c-0.6-2.2-0.9-4.4-0.9-6.6v-99c0-4.2,1.1-8.4,3.3-12L135,47.8
	c6.5-11.4,21.1-15.4,32.5-8.9c0.1,0,0.2,0.1,0.3,0.1c7.5,4.2,12.1,12.2,12,20.8c0,4.2-1.1,8.3-3.2,11.9l-37,64.2H120
	c-4.4,0-8,3.6-8,8v168c0,3.2,2,6.2,5,7.4c3,1.2,6.5,0.5,8.8-1.9l70.6-73c9.4-9.4,24.7-9.3,34,0.1c3.3,3.4,5.6,7.6,6.5,12.3
	c0.2,1.6,0.3,3.2,0.4,4.5c-0.1,6.4-2.6,12.4-7,17l-67.9,67.9C160.1,348.6,159.4,352.1,160.6,355z M480,344H187.3l50.8-50.7
	c14.8,21.8,39.5,34.8,65.9,34.7c44.2,0,80-35.7,80.1-79.9s-35.7-80-79.9-80.1c-35.1,0-66,22.8-76.5,56.2
	c-14.8-5.7-31.6-2.1-42.8,9.1L128,292.2V152h352V344z M252.6,254.4c-1.4-7.9-5.2-15.2-10.9-21c7.9-34.5,42.4-56.1,76.9-48.2
	c34.5,7.9,56.1,42.4,48.2,76.9s-42.4,56.1-76.9,48.2c-17.4-4-32.4-15.1-41.3-30.6c2.9-5.8,4.5-12.1,4.6-18.6
	C253.2,259,253,257,252.6,254.4z" />
	<path d="M304,272c-4.4,0-8-3.6-8-8h-16c0,10.1,6.4,19.1,16,22.5v9.5h16v-9.5c12.5-4.4,19-18.1,14.6-30.5c-3.4-9.6-12.5-16-22.6-16
	c-4.4,0-8-3.6-8-8s3.6-8,8-8s8,3.6,8,8h16c0-10.1-6.4-19.1-16-22.5V200h-16v9.5c-12.5,4.4-19,18.1-14.6,30.5
	c3.4,9.6,12.5,16,22.6,16c4.4,0,8,3.6,8,8S308.4,272,304,272z" />
	<path
		d="M160,199c11.3-2.9,20.1-11.7,23-23h17v-16h-24c-4.4,0-8,3.6-8,8c0,8.8-7.2,16-16,16c-4.4,0-8,3.6-8,8v24h16V199z" />
	<path
		d="M448,207v17h16v-24c0-4.4-3.6-8-8-8c-8.8,0-16-7.2-16-16c0-4.4-3.6-8-8-8h-24v16h17C427.9,195.3,436.7,204.1,448,207z" />
	<path d="M440,320c0-8.8,7.2-16,16-16c4.4,0,8-3.6,8-8v-24h-16v17c-11.3,2.9-20.1,11.7-23,23h-17v16h24C436.4,328,440,324.4,440,320
	z" />
</svg>