<svg id="line_color" height="512" viewBox="0 0 74 74" width="512" xmlns="http://www.w3.org/2000/svg" data-name="line color"><path d="M9.605 19.37h56.04v30.58H9.605z" fill="#89c5cd"/><path d="M62.812 19.37h2.833v30.58h-2.833z" fill="#6eaaad"/><path d="M65.645 13.47v5.9H9.605v-5.9a3.64 3.64 0 013.64-3.64h48.76a3.64 3.64 0 013.64 3.64z" fill="#e1e6e9"/><path d="M62.005 9.83h-2.38v.045a3.629 3.629 0 013.19 3.6v5.9h2.83v-5.9a3.64 3.64 0 00-3.64-3.645z" fill="#d5d6db"/><path d="M15.914 15.1H14.9a.5.5 0 010-1h1.013a.5.5 0 110 1zM20.87 15.1h-1.012a.5.5 0 010-1h1.012a.5.5 0 010 1zM25.827 15.1h-1.013a.5.5 0 010-1h1.013a.5.5 0 010 1zM61.466 15.1H32.509a.5.5 0 010-1h28.957a.5.5 0 010 1z" fill="#323c6b"/><path d="M65.646 49.952H9.6l-5.548 8.314a2.511 2.511 0 002.088 3.905h62.97a2.511 2.511 0 002.09-3.905z" fill="#e1e6e9"/><path d="M69.105 62.17H6.145a2.5 2.5 0 01-2.13-3.83 2.455 2.455 0 002.13 1.19h60.412a1.272 1.272 0 001.06-1.974l-5.042-7.606h2.86s5.7 8.55 5.8 8.39a2.5 2.5 0 01-2.13 3.83z" fill="#d5d6db"/><path d="M38.001 58.883h-7.683l1.493-3.258h6.19z" fill="#9297ab"/><path d="M38 59.383h-7.682a.5.5 0 01-.454-.708l1.492-3.258a.5.5 0 01.455-.292H38a.5.5 0 01.5.5v3.258a.5.5 0 01-.5.5zm-6.9-1h6.4v-2.258h-5.368z" fill="#323c6b"/><path d="M48.283 58.883H40.6v-3.258h6.19z" fill="#9297ab"/><path d="M48.283 59.383H40.6a.5.5 0 01-.5-.5v-3.258a.5.5 0 01.5-.5h6.19a.5.5 0 01.454.292l1.493 3.257a.5.5 0 01-.454.709zm-7.182-1h6.4l-1.035-2.258H41.1z" fill="#323c6b"/><path d="M30.978 39.229H15.5a7.329 7.329 0 011.555-4.92 6.094 6.094 0 013.932-1.945 3.464 3.464 0 004.5 0c4.013.548 5.491 3.412 5.491 6.865z" fill="#fcd462"/><path d="M30.979 39.729H15.5a.5.5 0 01-.5-.5 7.728 7.728 0 011.68-5.249 6.6 6.6 0 014.239-2.111.5.5 0 01.394.115 3.041 3.041 0 003.852 0 .5.5 0 01.392-.115c3.82.521 5.924 3.135 5.924 7.36a.5.5 0 01-.502.5zm-14.97-1h14.458c-.112-2.442-1.095-5.232-4.837-5.838a4.061 4.061 0 01-4.787 0 5.541 5.541 0 00-3.412 1.746 6.475 6.475 0 00-1.422 4.092z" fill="#323c6b"/><circle cx="23.234" cy="27.265" fill="#fcd462" r="3.625"/><g fill="#323c6b"><path d="M23.234 31.39a4.125 4.125 0 114.125-4.125 4.13 4.13 0 01-4.125 4.125zm0-7.25a3.125 3.125 0 103.125 3.125 3.129 3.129 0 00-3.125-3.125zM59.751 28.811h-22a.5.5 0 010-1h22a.5.5 0 010 1zM59.751 36.875h-22a.5.5 0 010-1h22a.5.5 0 110 1zM59.751 44.939H16.04a.5.5 0 010-1h43.711a.5.5 0 010 1zM6.776 12.475a.476.476 0 01-.112-.013.5.5 0 01-.375-.6 7.11 7.11 0 016.96-5.533h.259a.5.5 0 010 1h-.259a6.191 6.191 0 00-5.985 4.758.5.5 0 01-.488.388zM16.992 7.329h-.8a.5.5 0 010-1h.8a.5.5 0 010 1zM52.666 65.671h-.541a.5.5 0 010-1h.541a.5.5 0 010 1zM63.458 65.671h-8.333a.5.5 0 010-1h8.333a.5.5 0 110 1zM65.645 19.87H9.605a.5.5 0 01-.5-.5v-5.9a4.145 4.145 0 014.14-4.14h48.76a4.145 4.145 0 014.14 4.14v5.9a.5.5 0 01-.5.5zm-55.54-1h55.04v-5.4a3.143 3.143 0 00-3.14-3.14h-48.76a3.143 3.143 0 00-3.14 3.14zM69.109 62.671H6.141a3.01 3.01 0 01-2.5-4.683l5.552-8.314a.5.5 0 01.416-.222h56.037a.5.5 0 01.416.222l5.552 8.314a3.01 3.01 0 01-2.505 4.683zM9.872 50.452l-5.4 8.091a2.01 2.01 0 001.673 3.128h62.964a2.01 2.01 0 001.673-3.128l-5.4-8.091z"/><path d="M65.645 50.45H9.605a.5.5 0 01-.5-.5V19.37a.5.5 0 01.5-.5h56.04a.5.5 0 01.5.5v30.58a.5.5 0 01-.5.5zm-55.54-1h55.04V19.87h-55.04z"/></g><path d="M37.334 47.917h-.541a.65.65 0 010-1.3h.541a.65.65 0 110 1.3zM34.159 47.917H25.25a.65.65 0 010-1.3h8.909a.65.65 0 110 1.3z" fill="#fff"/></svg>