<svg id="offer" xmlns="http://www.w3.org/2000/svg" xmlns:xlink="http://www.w3.org/1999/xlink" viewBox="0 0 480 480">
	<g>
		<rect x="464" y="16.1" width="16" height="16" />
	</g>
	<g>
		<rect x="448" y="0.1" width="16" height="16" />
	</g>
	<g>
		<rect x="432" y="16.1" width="16" height="16" />
	</g>
	<g>
		<rect x="448" y="32.1" width="16" height="16" />
	</g>
	<g>
		<rect x="400" y="16.1" width="16" height="16" />
	</g>
	<g>
		<rect x="384" y="176.1" width="16" height="16" />
	</g>
	<g>
		<rect x="416" y="176.1" width="16" height="16" />
	</g>
	<g>
		<rect x="400" y="160.1" width="16" height="16" />
	</g>
	<g>
		<rect x="400" y="192.1" width="16" height="16" />
	</g>
	<g>
		<rect x="88" y="152.1" width="16" height="16" />
	</g>
	<g>
		<rect x="72" y="136.1" width="16" height="16" />
	</g>
	<g>
		<rect x="56" y="152.1" width="16" height="16" />
	</g>
	<g>
		<rect x="72" y="168.1" width="16" height="16" />
	</g>
	<g>
		<rect x="24" y="152.1" width="16" height="16" />
	</g>
	<g>
		<rect x="0" y="48.1" width="16" height="16" />
	</g>
	<g>
		<rect x="32" y="48.1" width="16" height="16" />
	</g>
	<g>
		<rect x="16" y="32.1" width="16" height="16" />
	</g>
	<g>
		<rect x="16" y="64.1" width="16" height="16" />
	</g>
	<g>
		<rect x="112" y="0.1" width="16" height="16" />
	</g>
	<g>
		<path d="M430.6,376c-3.4-9.6-12.5-15.9-22.6-15.9h-19.4L360,309.9v-85.9c0-17.7-14.3-32-32-32v-104c1.6-47-35.1-86.4-82.1-88
		c-2-0.1-3.9-0.1-5.9,0c-55,0-86.4,45.2-88,87.7c0,0.1,0.1,0.2,0.1,0.3H152v104c-17.7,0-32,14.3-32,32v85.9l-28.6,50.1H72
		c-13.2,0-24,10.7-24,23.9c0,10.1,6.4,19.2,15.9,22.6c-11.6,13.1-10.3,33,2.7,44.6c4.7,4.2,10.6,6.8,16.8,7.7L238.9,480
		c0.7,0.1,1.4,0.1,2.2,0l155.4-21.2c17.3-2.3,29.5-18.1,27.2-35.4c-0.8-6.2-3.5-12.1-7.7-16.8C428.6,402.1,435.1,388.4,430.6,376z
		 M240,16.1c38-1.8,70.2,27.6,72,65.6c0.1,2.1,0.1,4.3,0,6.4h-16c-22.1,0-40-17.9-40-40c0-4.4-3.6-8-8-8c-2.1,0-4.2,0.8-5.7,2.3
		c-19.8,19.9-45.6,32.8-73.4,36.7C173.3,43.2,203.8,16.1,240,16.1z M224,200.1v-34.2c5.2,1.4,10.6,2.2,16,2.2
		c5.4,0,10.8-0.8,16-2.3v34.3c0,4.4,3.6,8,8,8h16v10.2l-40,13.3l-40-13.3v-10.2h16C220.4,208.1,224,204.5,224,200.1z M177.6,93.8
		c23.8-4.4,46-14.7,64.8-29.9c7.1,23.8,28.9,40.1,53.7,40.1h3.5c-10,26.8-35.4,48-59.5,48C212.2,152.1,184.2,125.1,177.6,93.8z
		 M272,192.1v-32.7c17.7-9.9,31.7-25.3,40-43.8v76.4h-24H272z M168,115.6c8.3,18.5,22.3,33.9,40,43.8v32.6h-40V115.6z M184,208.1
		v16c0,3.4,2.2,6.5,5.5,7.6v0l48,16c1.6,0.6,3.4,0.6,5.1,0l48-16c3.3-1.1,5.5-4.1,5.5-7.6v-16h21.8l-36,144h-83.5l-36-144H184z
		 M195.7,368.1h88.6l32.1,37.5L240,416l-76.5-10.4L195.7,368.1z M144.7,403l-14.8-2l50.1-55.7l3.2,12.7L144.7,403z M296.8,358
		l3.2-12.7l50.1,55.7l-14.8,2L296.8,358z M64,384.1c0-4.4,3.6-8,8-8h24c2.9,0,5.5-1.5,6.9-4l32-56c0.7-1.2,1.1-2.6,1.1-4v-88
		c0-6.5,4-12.4,10-14.8l14.7,58.7l14.7,58.7l-58.9,65.5H72C67.6,392.1,64,388.5,64,384.1z M240,464L85.7,442.9
		c-8.6-1.1-14.7-9.1-13.6-17.7c1-7.9,7.8-13.7,15.7-13.7c0.7,0,1.4,0.1,2.1,0.2l56.9,7.8l90.4,12.3l42.8,26.8L240,464z
		 M394.4,442.9l-89.6,12.2L263,429l70.2-9.6l56.9-7.8c8.6-1.2,16.6,4.8,17.8,13.4c0.1,0.7,0.2,1.5,0.2,2.2
		C408,435.2,402.2,441.8,394.4,442.9z M408,392.1h-44.4l-58.9-65.5l14.7-58.7l14.7-58.7c6.1,2.4,10,8.3,10,14.9v88
		c0,1.4,0.4,2.8,1.1,4l32,56c1.4,2.5,4.1,4,6.9,4h24c4.4,0,8,3.6,8,8S412.4,392.1,408,392.1z" />
	</g>
</svg>