<?xml version="1.0" encoding="utf-8"?>
<!-- Generator: Adobe Illustrator 24.1.2, SVG Export Plug-In . SVG Version: 6.00 Build 0)  -->
<svg version="1.1" id="Capa_1" xmlns="http://www.w3.org/2000/svg" xmlns:xlink="http://www.w3.org/1999/xlink" x="0px" y="0px"
	 viewBox="0 0 512 512" style="enable-background:new 0 0 512 512;" xml:space="preserve">
<style type="text/css">
	.st0{fill:#FFFFFF;}
</style>
<g>
	<path class="st0" d="M282.7,47.6c-37.3-10.9-76.3-6.2-109.9,13.3c-67.3,38.9-90.5,125.4-51.6,192.8c36.6,66.5,127.5,91,192.6,51.7
		c67.3-38.9,90.5-125.4,51.6-192.8c-11.8-20.5-28.6-37.8-48.7-50c-3.5-2.2-8.1-1-10.3,2.5c-2.2,3.5-1,8.2,2.5,10.3
		c17.9,10.9,33,26.4,43.5,44.7c34.7,60.2,14,137.6-46.1,172.3c-58,35.1-139.4,13.2-172.1-46.2c-34.7-60.2-14.1-137.6,46.1-172.3
		c30-17.4,64.9-21.6,98.2-11.9c4,1.2,8.1-1.1,9.3-5.1S286.7,48.7,282.7,47.6L282.7,47.6z"/>
	<path class="st0" d="M446,450.4c0-0.1-0.1-0.1-0.1-0.2l-18-29.3c-2.2-3.5-6.8-4.6-10.3-2.5c-3.5,2.2-4.6,6.8-2.5,10.3l18,29.2
		c7.1,12.4,2.8,28.3-9.5,35.5c-12.1,7.4-29.2,2.8-35.9-9.7l-48.9-79.9l45-26c0,0,0.1,0.1,0.1,0.1l12.7,20.6
		c2.2,3.5,6.8,4.6,10.3,2.5c3.5-2.2,4.6-6.8,2.5-10.3l-12.6-20.5c-4.2-7.3-9.6-13.9-15.8-19.6L356,327.2
		c70.6-55.2,91.7-155.7,45.6-235.6c-24.4-42.4-63.9-72.6-111-85.3c-47.1-12.6-96.4-6.1-138.6,18.3C64.6,75.1,34.6,187.2,85,274.6
		c12.5,21.8,29,40.3,49,55.2c3.3,2.5,8,1.8,10.5-1.5c2.5-3.3,1.8-8-1.5-10.5c-18.3-13.7-33.4-30.7-44.9-50.7
		C51.7,186.9,79.3,83.9,159.4,37.6c38.8-22.4,84-28.4,127.2-16.8c43.3,11.6,79.5,39.4,101.9,78.3c46.3,80.2,18.7,183.2-61.4,229.5
		c-47.6,27.5-105.7,29.9-155.5,6.4c-3.7-1.8-8.2-0.2-10,3.6c-1.8,3.7-0.2,8.2,3.6,10c45.3,21.3,97.1,23.1,143.5,5.3l8,33.8
		c1.8,8.3,4.8,16.2,9.1,23.6c0,0.1,0.1,0.1,0.1,0.2l48.9,80c10.7,19.4,37.4,26.6,56.3,14.9C450.6,495,457.2,469.9,446,450.4
		L446,450.4z M374.8,365.7l-42,24.3c-0.5-1.8-9.8-41.1-9.8-41.1l21.1-12.2C344.1,336.6,373.5,364.3,374.8,365.7L374.8,365.7z"/>
	<path class="st0" d="M280.8,132.1c0-20.7-16.8-37.5-37.5-37.5s-37.5,16.8-37.5,37.5s16.8,37.5,37.5,37.5S280.8,152.8,280.8,132.1
		L280.8,132.1z M220.8,132.1c0-12.4,10.1-22.5,22.5-22.5c12.4,0,22.5,10.1,22.5,22.5s-10.1,22.5-22.5,22.5
		C230.9,154.6,220.8,144.5,220.8,132.1z"/>
	<path class="st0" d="M272.3,256.5l-9.1,0c-4.1,0-7.5,3.4-7.5,7.5c0,4.1,3.4,7.5,7.5,7.5h0l9.1,0h0.1c8.3,0,15.8-3.1,21.1-8.8
		c5.6-6,8.3-14.2,7.6-23.1c-1.6-20.6-13.1-34.7-13.6-35.3c-6.8-8.1-21.5-21.8-44.1-21.9c-0.1,0-0.2,0-0.4,0
		c-23.2,0-38.1,14.4-43.4,20.6c-12.6,14.8-13.7,31.4-14,36.9c0,0,0,0.1,0,0.1c-0.5,10.8,1.8,18.6,7,24c4.8,5,11.9,7.5,21.7,7.5h0.2
		l13.8,0c4.1,0,7.5-3.4,7.5-7.5c0-4.1-3.4-7.5-7.5-7.5h0l-13.9,0c-0.1,0-0.1,0-0.2,0c-5.4,0-9-0.9-10.9-2.9c-2.6-2.8-3-8.6-2.8-12.8
		c0.3-4.7,1.1-17.1,10.4-28c3.1-3.6,14.6-15.4,32.1-15.4c0.1,0,0.2,0,0.2,0c16.6,0.1,27.6,10.4,32.7,16.5c0.1,0.1,9,11.2,10.2,26.9
		c0.4,4.7-0.9,8.9-3.6,11.7C280,255.2,276.5,256.6,272.3,256.5L272.3,256.5z"/>
</g>
</svg>
