<?xml version="1.0" encoding="utf-8"?>
<!-- Generator: Adobe Illustrator 24.1.2, SVG Export Plug-In . SVG Version: 6.00 Build 0)  -->
<svg version="1.1" id="github" xmlns="http://www.w3.org/2000/svg" xmlns:xlink="http://www.w3.org/1999/xlink" x="0px" y="0px"
	 viewBox="0 0 600 600" style="enable-background:new 0 0 600 600;" xml:space="preserve">
<style type="text/css">
	.st0{fill:#212121;}
</style>
<path class="st0" d="M473.9,153.2c3-7.4,13.1-37.1-3-77.6c0,0-24.9-7.8-81.6,30.1c-23.9-6.5-49.1-9.8-74.6-9.9
	c-25.4,0.2-50.6,3.4-74.6,9.9c-57.1-37.9-82-30.1-82-30.1c-16.1,40.3-5.9,70.1-2.6,77.6c-19.1,20.5-30.6,46.6-30.6,78.6
	c0,112.3,69.6,137.4,135.8,144.8c-8.5,7.4-16.2,20.3-18.9,39.2c-17,7.4-60.2,20.4-86.9-24.3c0,0-15.8-28.2-45.7-30.2
	c0,0-29.1-0.4-2.1,17.9c0,0,19.6,9.1,33.2,42.8c0,0,17.5,56.9,100.4,39.2c0.2,24.5,0.4,42.8,0.4,49.8c0,5.7-3,12.2-10.6,14.1
	l167.8-0.4l0,0c-7.4-1.9-10.3-8.3-10.3-13.9c0-9.5,0.4-41,0.4-80.3c0-27.5-9.7-45.4-20.2-54.2c66.4-7.2,136-32,136-144.5
	C504.4,199.8,492.8,173.6,473.9,153.2z"/>
</svg>
