<svg version="1.1" id="logo" xmlns="http://www.w3.org/2000/svg" x="0" y="0" viewBox="0 0 512 512" xml:space="preserve"><path d="M488.7 279.3c-7 0-11.6 4.7-11.6 11.6v151.3c0 7-4.7 11.6-11.6 11.6h-419c-7 0-11.6-4.7-11.6-11.6V290.9c0-7-4.7-11.6-11.6-11.6s-11.6 4.7-11.6 11.6v151.3c0 19.8 15.1 34.9 34.9 34.9h418.9c19.8 0 34.9-15.1 34.9-34.9V290.9c0-7-4.7-11.6-11.7-11.6z"/><path d="M477.1 116.4H34.9C15.1 116.4 0 131.5 0 151.3v74.5C0 242 11.6 256 26.8 259.5l182.7 40.7v37.2c0 7 4.7 11.6 11.6 11.6h69.8c7 0 11.6-4.7 11.6-11.6v-37.2l182.7-40.7C500.4 256 512 242 512 225.7v-74.5c0-19.7-15.1-34.8-34.9-34.8zM279.3 325.8h-46.5v-46.5h46.5v46.5zm209.4-100.1c0 5.8-3.5 10.5-9.3 11.6l-176.9 39.6v-9.3c0-7-4.7-11.6-11.6-11.6h-69.8c-7 0-11.6 4.7-11.6 11.6v9.3L32.6 237.4c-5.8-1.2-9.3-5.8-9.3-11.6v-74.5c0-7 4.7-11.6 11.6-11.6h442.2c7 0 11.6 4.7 11.6 11.6v74.4z"/><path d="M314.2 64.3H197.8c-19.8 0-34.9 15.1-34.9 34.9v11.6c0 7 4.7 11.6 11.6 11.6s11.6-4.7 11.6-11.6V99.2c0-7 4.7-11.6 11.6-11.6h116.4c7 0 11.6 4.7 11.6 11.6v11.6c0 7 4.7 11.6 11.6 11.6 7 0 11.6-4.7 11.6-11.6V99.2c.2-19.8-14.9-34.9-34.7-34.9z"/></svg>