<svg version="1.1" id="Capa_1" xmlns="http://www.w3.org/2000/svg" x="0" y="0" viewBox="0 0 512 512" xml:space="preserve"><style>.st0{fill:#fff}</style><path class="st0" d="M282.7 47.6c-37.3-10.9-76.3-6.2-109.9 13.3-67.3 38.9-90.5 125.4-51.6 192.8 36.6 66.5 127.5 91 192.6 51.7 67.3-38.9 90.5-125.4 51.6-192.8-11.8-20.5-28.6-37.8-48.7-50-3.5-2.2-8.1-1-10.3 2.5-2.2 3.5-1 8.2 2.5 10.3 17.9 10.9 33 26.4 43.5 44.7 34.7 60.2 14 137.6-46.1 172.3-58 35.1-139.4 13.2-172.1-46.2-34.7-60.2-14.1-137.6 46.1-172.3 30-17.4 64.9-21.6 98.2-11.9 4 1.2 8.1-1.1 9.3-5.1s-1.1-8.2-5.1-9.3z"/><path class="st0" d="M446 450.4c0-.1-.1-.1-.1-.2l-18-29.3c-2.2-3.5-6.8-4.6-10.3-2.5-3.5 2.2-4.6 6.8-2.5 10.3l18 29.2c7.1 12.4 2.8 28.3-9.5 35.5-12.1 7.4-29.2 2.8-35.9-9.7l-48.9-79.9 45-26 .1.1 12.7 20.6c2.2 3.5 6.8 4.6 10.3 2.5 3.5-2.2 4.6-6.8 2.5-10.3l-12.6-20.5c-4.2-7.3-9.6-13.9-15.8-19.6l-25-23.4c70.6-55.2 91.7-155.7 45.6-235.6-24.4-42.4-63.9-72.6-111-85.3C243.5-6.3 194.2.2 152 24.6c-87.4 50.5-117.4 162.6-67 250 12.5 21.8 29 40.3 49 55.2 3.3 2.5 8 1.8 10.5-1.5s1.8-8-1.5-10.5c-18.3-13.7-33.4-30.7-44.9-50.7-46.4-80.2-18.8-183.2 61.3-229.5 38.8-22.4 84-28.4 127.2-16.8 43.3 11.6 79.5 39.4 101.9 78.3 46.3 80.2 18.7 183.2-61.4 229.5-47.6 27.5-105.7 29.9-155.5 6.4-3.7-1.8-8.2-.2-10 3.6-1.8 3.7-.2 8.2 3.6 10 45.3 21.3 97.1 23.1 143.5 5.3l8 33.8c1.8 8.3 4.8 16.2 9.1 23.6 0 .1.1.1.1.2l48.9 80c10.7 19.4 37.4 26.6 56.3 14.9 19.5-11.4 26.1-36.5 14.9-56zm-71.2-84.7l-42 24.3c-.5-1.8-9.8-41.1-9.8-41.1l21.1-12.2c0-.1 29.4 27.6 30.7 29z"/><path class="st0" d="M280.8 132.1c0-20.7-16.8-37.5-37.5-37.5s-37.5 16.8-37.5 37.5 16.8 37.5 37.5 37.5 37.5-16.8 37.5-37.5zm-60 0c0-12.4 10.1-22.5 22.5-22.5s22.5 10.1 22.5 22.5-10.1 22.5-22.5 22.5-22.5-10.1-22.5-22.5zM272.3 256.5h-9.1c-4.1 0-7.5 3.4-7.5 7.5s3.4 7.5 7.5 7.5h9.2c8.3 0 15.8-3.1 21.1-8.8 5.6-6 8.3-14.2 7.6-23.1-1.6-20.6-13.1-34.7-13.6-35.3-6.8-8.1-21.5-21.8-44.1-21.9h-.4c-23.2 0-38.1 14.4-43.4 20.6-12.6 14.8-13.7 31.4-14 36.9v.1c-.5 10.8 1.8 18.6 7 24 4.8 5 11.9 7.5 21.7 7.5h14c4.1 0 7.5-3.4 7.5-7.5s-3.4-7.5-7.5-7.5h-14.1c-5.4 0-9-.9-10.9-2.9-2.6-2.8-3-8.6-2.8-12.8.3-4.7 1.1-17.1 10.4-28 3.1-3.6 14.6-15.4 32.1-15.4h.2c16.6.1 27.6 10.4 32.7 16.5.1.1 9 11.2 10.2 26.9.4 4.7-.9 8.9-3.6 11.7-2.5 2.7-6 4.1-10.2 4z"/></svg>