<svg version="1.1" id="github" xmlns="http://www.w3.org/2000/svg" x="0" y="0" viewBox="0 0 600 600" xml:space="preserve"><path d="M473.9 153.2c3-7.4 13.1-37.1-3-77.6 0 0-24.9-7.8-81.6 30.1-23.9-6.5-49.1-9.8-74.6-9.9-25.4.2-50.6 3.4-74.6 9.9-57.1-37.9-82-30.1-82-30.1-16.1 40.3-5.9 70.1-2.6 77.6-19.1 20.5-30.6 46.6-30.6 78.6 0 112.3 69.6 137.4 135.8 144.8-8.5 7.4-16.2 20.3-18.9 39.2-17 7.4-60.2 20.4-86.9-24.3 0 0-15.8-28.2-45.7-30.2 0 0-29.1-.4-2.1 17.9 0 0 19.6 9.1 33.2 42.8 0 0 17.5 56.9 100.4 39.2.2 24.5.4 42.8.4 49.8 0 5.7-3 12.2-10.6 14.1l167.8-.4c-7.4-1.9-10.3-8.3-10.3-13.9 0-9.5.4-41 .4-80.3 0-27.5-9.7-45.4-20.2-54.2 66.4-7.2 136-32 136-144.5.2-32-11.4-58.2-30.3-78.6z" fill="#212121"/></svg>