<svg xmlns="http://www.w3.org/2000/svg" viewBox="0 0 50 50"><path d="M33 29c-1.795 0-3 1.515-3 4 0 2.485.889 5.048 3 5 2.22-.05 3.019-2.224 3-5-.017-2.485-1.206-4-3-4zm11.263-11.934c.272-1.343.389-6.101-1.585-11.066 0 0-4.528.496-11.38 5.198-1.436-.397-3.867-.595-6.298-.595-2.43 0-4.861.198-6.299.594C11.85 6.496 7.323 6 7.323 6c-1.974 4.965-1.879 9.611-1.586 11.066C3.417 19.584 2 22.609 2 26.741c0 17.966 14.905 18.254 18.667 18.254L25 45a3179.3 3179.3 0 014.333-.005c3.762 0 18.667-.288 18.667-18.254 0-4.132-1.417-7.157-3.737-9.675zM25.141 43H25c-9.429 0-16.842-1.339-16.842-10.503 0-2.195.774-4.233 2.614-5.924 3.071-2.818 8.264-1.325 14.158-1.325h.141c5.894 0 11.089-1.492 14.158 1.325 1.84 1.691 2.614 3.729 2.614 5.924C41.843 41.661 34.57 43 25.141 43zM17 29c-1.794 0-3 2.015-3 4.5s1.206 4.5 3 4.5c1.796 0 3-2.015 3-4.5S18.796 29 17 29z"/></svg>