<svg version="1.1" id="Capa_1" xmlns="http://www.w3.org/2000/svg" x="0" y="0" viewBox="0 0 477.8 477.8" xml:space="preserve"><path d="M472.8 226.8l-34.1-34.1L251 5c-6.7-6.7-17.5-6.7-24.1 0L39.1 192.7 5 226.9c-6.5 6.8-6.4 17.6.4 24.1 6.6 6.4 17.1 6.4 23.7 0l5-5v214.8c0 9.4 7.6 17.1 17.1 17.1h375.5c9.4 0 17.1-7.6 17.1-17.1V246l5 5c6.8 6.5 17.6 6.4 24.1-.4 6.3-6.7 6.3-17.1-.1-23.8zM290.1 443.7H187.7V307.2h102.4v136.5zm119.5 0h-85.3V290.1c0-9.4-7.6-17.1-17.1-17.1H170.6c-9.4 0-17.1 7.6-17.1 17.1v153.6H68.2V211.8L238.9 41.2l170.7 170.7v231.8z" fill="#fff"/></svg>