<svg version="1.1" id="_x31__px" xmlns="http://www.w3.org/2000/svg" x="0" y="0" viewBox="0 0 512 512" xml:space="preserve" fill="#fff"><path d="M256 512c-5.9 0-10.7-4.8-10.7-10.7v-128c0-5.9 4.8-10.7 10.7-10.7s10.7 4.8 10.7 10.7v128c0 5.9-4.8 10.7-10.7 10.7z"/><path d="M352 512c-2 0-4.1-.6-5.9-1.8l-96-64c-4.9-3.3-6.2-9.9-3-14.8 3.3-4.9 9.9-6.2 14.8-3l96 64c4.9 3.3 6.2 9.9 3 14.8-2.1 3.1-5.5 4.8-8.9 4.8z"/><path d="M160 512c-3.5 0-6.8-1.7-8.9-4.8-3.3-4.9-1.9-11.5 3-14.8l96-64c4.9-3.3 11.5-1.9 14.8 3 3.3 4.9 1.9 11.5-3 14.8l-96 64c-1.8 1.2-3.9 1.8-5.9 1.8zM469.3 106.7H42.7C19.1 106.7 0 87.5 0 64s19.1-42.7 42.7-42.7h426.7c23.5 0 42.7 19.1 42.7 42.7s-19.2 42.7-42.8 42.7zm-426.6-64c-11.8 0-21.3 9.6-21.3 21.3S31 85.3 42.7 85.3h426.7c11.8 0 21.3-9.6 21.3-21.3s-9.6-21.3-21.3-21.3H42.7z"/><path d="M437.3 384H74.7c-17.6 0-32-14.4-32-32V96c0-5.9 4.8-10.7 10.7-10.7h405.3c5.9 0 10.7 4.8 10.7 10.7v256c-.1 17.6-14.4 32-32.1 32zM64 106.7V352c0 5.9 4.8 10.7 10.7 10.7h362.7c5.9 0 10.7-4.8 10.7-10.7V106.7H64z"/><path d="M138.7 320c-2.7 0-5.5-1-7.6-3.1-4.2-4.2-4.2-10.9 0-15.1l85.3-85.3c3.6-3.6 9.2-4.2 13.5-1.3l55.9 37.2 79.2-99c3.7-4.6 10.4-5.4 15-1.7s5.3 10.4 1.7 15l-85.3 106.7c-3.5 4.3-9.6 5.3-14.3 2.2l-56.7-37.8-79.1 79.1c-2.2 2.1-4.9 3.1-7.6 3.1z"/></svg>