<svg xmlns="http://www.w3.org/2000/svg" viewBox="0 0 32 32"><path fill="none" stroke="#000" stroke-miterlimit="10" stroke-width="2" d="M25.501 5.149c-.734.29-21.568 9.074-21.568 9.074s-1.009.345-.929.982c.08.637.903.929.903.929l5.362 1.805s1.619 5.309 1.938 6.317c.319 1.009.574 1.033.574 1.033.296.129.567-.077.567-.077l3.465-3.159 5.401 4.141c1.46.637 1.991-.69 1.991-.69L26.926 6.44c.33-1.476-.65-1.596-1.425-1.291z"/><path d="M22.859 9.764c.027-.451-.602-.129-.602-.129L9.159 17.748s1.729 5.5 2.048 6.509c.318 1.009.754 1.181.754 1.181l.978-6.224 9.655-8.999c.398-.371.265-.451.265-.451z"/></svg>